<svg width="24" height="24" viewBox="0 0 24 24" fill="none" xmlns="http://www.w3.org/2000/svg">
<path d="M4 21V10.975L1.9 12.575L1 11.375L4 9.1V6.25H5.5V7.95L12 3L23 11.4L22.1 12.575L20 10.975V21H4ZM5.5 19.5H11.25V15.5H12.75V19.5H18.5V9.825L12 4.875L5.5 9.825V19.5ZM4 5C4 4.23333 4.27083 3.58333 4.8125 3.05C5.35417 2.51667 6 2.25 6.75 2.25C7.1 2.25 7.39583 2.125 7.6375 1.875C7.87917 1.625 8 1.33333 8 1H9.5C9.5 1.75 9.23333 2.39583 8.7 2.9375C8.16667 3.47917 7.51667 3.75 6.75 3.75C6.41667 3.75 6.125 3.87083 5.875 4.1125C5.625 4.35417 5.5 4.65 5.5 5H4Z" fill="white"/>
</svg>
