<svg width="24" height="24" viewBox="0 0 24 24" fill="none" xmlns="http://www.w3.org/2000/svg">
<path d="M3 21V19.5H5.3V3H15.05V4.125H18.725V19.5H21V21H17.225V5.625H15.05V21H3ZM11.275 13C11.5583 13 11.7958 12.9042 11.9875 12.7125C12.1792 12.5208 12.275 12.2833 12.275 12C12.275 11.7167 12.1792 11.4792 11.9875 11.2875C11.7958 11.0958 11.5583 11 11.275 11C10.9917 11 10.7542 11.0958 10.5625 11.2875C10.3708 11.4792 10.275 11.7167 10.275 12C10.275 12.2833 10.3708 12.5208 10.5625 12.7125C10.7542 12.9042 10.9917 13 11.275 13ZM6.8 19.5H13.55V4.5H6.8V19.5Z" fill="white"/>
</svg>
