<svg width="24" height="24" viewBox="0 0 24 24" fill="none" xmlns="http://www.w3.org/2000/svg">
<path d="M16 8H8M16 8V16M16 8H19C20.65 8 22 6.65 22 5C22 3.35 20.65 2 19 2C17.35 2 16 3.35 16 5V8ZM8 8V16M8 8H5C3.35 8 2 6.65 2 5C2 3.35 3.35 2 5 2C6.65 2 8 3.35 8 5V8ZM8 16H16M8 16V19C8 20.65 6.65 22 5 22C3.35 22 2 20.65 2 19C2 17.35 3.35 16 5 16H8ZM16 16H19C20.65 16 22 17.35 22 19C22 20.65 20.65 22 19 22C17.35 22 16 20.65 16 19V16Z" stroke="white" stroke-width="1.5" stroke-linecap="round" stroke-linejoin="round"/>
</svg>
