<svg xmlns="http://www.w3.org/2000/svg" viewBox="0 0 59.23 46.92"><defs><style>.cls-1{fill:#fff;}.cls-2{fill:none;stroke:#fff;stroke-miterlimit:10;stroke-width:0.5px;}</style></defs><g id="Слой_2" data-name="Слой 2"><g id="Слой_1-2" data-name="Слой 1"><path class="cls-1" d="M4.17,45.7l.46.45a2.49,2.49,0,0,1-1.83.75A2.56,2.56,0,0,1,1,46.21a2.43,2.43,0,0,1-.74-1.86A2.39,2.39,0,0,1,1,42.5a2.54,2.54,0,0,1,1.83-.69,2.38,2.38,0,0,1,1.75.73L4.11,43a1.8,1.8,0,0,0-1.3-.53A1.88,1.88,0,0,0,1.45,43a1.82,1.82,0,0,0-.54,1.39,1.85,1.85,0,0,0,.54,1.41,1.93,1.93,0,0,0,1.35.5A1.87,1.87,0,0,0,4.17,45.7Z"/><path class="cls-1" d="M7.82,41.79a2.47,2.47,0,0,1,1.82.72A2.54,2.54,0,0,1,7.82,46.9a2.56,2.56,0,1,1,0-5.11ZM9.17,43a1.77,1.77,0,0,0-1.35-.55A1.76,1.76,0,0,0,6.48,43,2,2,0,0,0,6,44.36a1.89,1.89,0,0,0,.53,1.39,1.82,1.82,0,0,0,1.34.52,1.83,1.83,0,0,0,1.36-.52,1.92,1.92,0,0,0,.51-1.39A2,2,0,0,0,9.17,43Z"/><path class="cls-1" d="M16.18,46.82H15.5V44.05a1.59,1.59,0,0,0-.43-1.2,1.61,1.61,0,0,0-1.18-.42,1.54,1.54,0,0,0-1.16.5,1.65,1.65,0,0,0-.46,1.2v2.69H11.6V41.88h.64l0,.83A1.93,1.93,0,0,1,14,41.8,2,2,0,0,1,16.18,44Z"/><path class="cls-1" d="M21.29,42.45l-.39.44a2.09,2.09,0,0,0-1.46-.5,1.9,1.9,0,0,0-1,.2.64.64,0,0,0-.38.6.56.56,0,0,0,.23.45,1.28,1.28,0,0,0,.48.24l.64.12.47.08a3.48,3.48,0,0,1,.45.09,1.63,1.63,0,0,1,.45.17l.33.25a.84.84,0,0,1,.26.38,1.37,1.37,0,0,1,.08.51,1.22,1.22,0,0,1-.31.83,1.62,1.62,0,0,1-.75.48,3.25,3.25,0,0,1-1,.13,2.56,2.56,0,0,1-2.19-1l.42-.46a2.39,2.39,0,0,0,2.72.61.65.65,0,0,0,.41-.64.71.71,0,0,0-.1-.39.58.58,0,0,0-.33-.25,2.14,2.14,0,0,0-.43-.14c-.14,0-.33-.07-.57-.1l-.57-.1a3.24,3.24,0,0,1-.52-.15,1.89,1.89,0,0,1-.45-.24,1.22,1.22,0,0,1-.29-.37,1.11,1.11,0,0,1-.12-.52A1.18,1.18,0,0,1,18,42.14a2.48,2.48,0,0,1,1.4-.36A2.61,2.61,0,0,1,21.29,42.45Z"/><path class="cls-1" d="M23.25,40.49l.67-.07v1.47h1.6v.57h-1.6v2.79a1.27,1.27,0,0,0,.19.77.75.75,0,0,0,.65.26,1.68,1.68,0,0,0,.72-.19l.21.56a2.22,2.22,0,0,1-1,.24,1.35,1.35,0,0,1-1.13-.42,1.83,1.83,0,0,1-.36-1.22V42.46h-1v-.57h1Z"/><path class="cls-1" d="M26.59,41.88h.63l0,.81a1.41,1.41,0,0,1,.65-.67,2,2,0,0,1,.92-.22,1.91,1.91,0,0,1,1.12.35l-.31.56a1.47,1.47,0,0,0-.85-.26,1.56,1.56,0,0,0-1.09.45A1.51,1.51,0,0,0,27.26,44v2.81h-.67Z"/><path class="cls-1" d="M30.7,41.88h.67v2.77a1.62,1.62,0,0,0,.44,1.2,1.58,1.58,0,0,0,1.18.41,1.55,1.55,0,0,0,1.17-.48,1.73,1.73,0,0,0,.45-1.21V41.88h.66v4.94h-.62l0-.83a2,2,0,0,1-1.75.91,2.14,2.14,0,0,1-1.58-.6,2.22,2.22,0,0,1-.6-1.64Z"/><path class="cls-1" d="M40.44,45.7l.46.45a2.49,2.49,0,0,1-1.83.75,2.56,2.56,0,0,1-1.82-.69,2.43,2.43,0,0,1-.74-1.86,2.39,2.39,0,0,1,.73-1.85,2.54,2.54,0,0,1,1.83-.69,2.38,2.38,0,0,1,1.75.73l-.44.43a1.8,1.8,0,0,0-1.3-.53,1.88,1.88,0,0,0-1.36.52,1.82,1.82,0,0,0-.54,1.39,1.85,1.85,0,0,0,.54,1.41,1.93,1.93,0,0,0,1.35.5A1.87,1.87,0,0,0,40.44,45.7Z"/><path class="cls-1" d="M42.57,40.49l.67-.07v1.47h1.6v.57h-1.6v2.79a1.27,1.27,0,0,0,.19.77.75.75,0,0,0,.65.26,1.68,1.68,0,0,0,.72-.19l.21.56a2.22,2.22,0,0,1-.95.24,1.35,1.35,0,0,1-1.13-.42,1.83,1.83,0,0,1-.36-1.22V42.46h-1v-.57h1Z"/><path class="cls-1" d="M46,40.75a.49.49,0,0,1,0-.84.49.49,0,0,1,.47,0,.43.43,0,0,1,.24.42.44.44,0,0,1-.23.42A.51.51,0,0,1,46,40.75Zm.56,1.11h-.67v5h.67Z"/><path class="cls-1" d="M50.36,41.79a2.45,2.45,0,1,1-1.83.72A2.49,2.49,0,0,1,50.36,41.79ZM51.71,43A1.92,1.92,0,0,0,49,43a2,2,0,0,0-.53,1.41A1.89,1.89,0,0,0,49,45.75a2,2,0,0,0,2.7,0,1.92,1.92,0,0,0,.51-1.39A2,2,0,0,0,51.71,43Z"/><path class="cls-1" d="M58.72,46.82H58V44.05a1.59,1.59,0,0,0-.43-1.2,1.61,1.61,0,0,0-1.18-.42,1.54,1.54,0,0,0-1.16.5,1.65,1.65,0,0,0-.46,1.2v2.69h-.67V41.88h.64l0,.83a1.93,1.93,0,0,1,1.72-.91A2,2,0,0,1,58.72,44Z"/><path class="cls-1" d="M0,1.62C0,.91.4.55,1.2.55S2.41.91,2.41,1.62a1.06,1.06,0,0,1-.59,1,1.3,1.3,0,0,1-1.21,0A1,1,0,0,1,0,1.62Zm1.82,7.1H.45v21H1.82Z"/><path class="cls-1" d="M30.52,29.74H29.16V27.06l.27-3a8.3,8.3,0,0,1-4,4.45,12.21,12.21,0,0,1-6,1.51,11.67,11.67,0,0,1-8.07-3,10,10,0,0,1-3.3-7.81,10,10,0,0,1,3.25-7.78,11.44,11.44,0,0,1,8-3,12.6,12.6,0,0,1,6.3,1.64,7.58,7.58,0,0,1,3.8,4.57l-.27-3.4V0h1.36ZM19.29,9.7a10,10,0,0,0-7,2.6,8.94,8.94,0,0,0-2.83,6.93,8.84,8.84,0,0,0,2.92,6.94,10.35,10.35,0,0,0,7.14,2.6q4.82,0,7.28-2.79a10.18,10.18,0,0,0,2.45-7,9.17,9.17,0,0,0-2.59-6.64A9.74,9.74,0,0,0,19.29,9.7Z"/><path class="cls-1" d="M59.23,20.46c-.56,2.15-2.43,4-3.78,5.52-1.64,1.86-4.06,2.79-7.28,2.79A10.35,10.35,0,0,1,41,26.17a8.83,8.83,0,0,1-2.91-6.94,9,9,0,0,1,2.82-6.93A10,10,0,0,1,48,9.7a9.74,9.74,0,0,1,7.32,2.68,23.37,23.37,0,0,1,3.92,5.1h0V8.72H57.86v2.56l.27,3.4a7.56,7.56,0,0,0-3.79-4.57A12.67,12.67,0,0,0,48,8.47a11.4,11.4,0,0,0-8,3,10,10,0,0,0-3.26,7.78A10,10,0,0,0,40.05,27a11.67,11.67,0,0,0,8.08,3,12.21,12.21,0,0,0,6-1.51,8.25,8.25,0,0,0,4-4.45l-.27,3v2.68h1.37V20.46Z"/><line class="cls-2" y1="35.24" x2="59.23" y2="35.24"/></g></g></svg>