<svg xmlns="http://www.w3.org/2000/svg" viewBox="0 0 123 22"><defs><style>.cls-1{fill:#fff;}.cls-2{fill:#628451;}</style></defs><g id="Слой_2" data-name="Слой 2"><g id="Слой_1-2" data-name="Слой 1"><path class="cls-1" d="M0,1.19C0,.67.28.41.85.41s.84.26.84.78a.78.78,0,0,1-.41.75.91.91,0,0,1-.85,0A.78.78,0,0,1,0,1.19ZM1.28,6.4h-1V21.81h1Z"/><path class="cls-1" d="M21.45,21.81h-1v-2l.2-2.22a6,6,0,0,1-2.79,3.26A8.26,8.26,0,0,1,13.65,22,8,8,0,0,1,8,19.83,7.45,7.45,0,0,1,5.66,14.1,7.55,7.55,0,0,1,7.94,8.39a7.9,7.9,0,0,1,5.65-2.18A8.7,8.7,0,0,1,18,7.41a5.55,5.55,0,0,1,2.67,3.36l-.2-2.5V0h1ZM13.56,7.12A6.86,6.86,0,0,0,8.6,9a6.72,6.72,0,0,0-2,5.08,6.62,6.62,0,0,0,2,5.09,7.1,7.1,0,0,0,5,1.9,6.33,6.33,0,0,0,5.12-2A7.63,7.63,0,0,0,20.53,14,6.87,6.87,0,0,0,18.7,9.08,6.66,6.66,0,0,0,13.56,7.12Z"/><path class="cls-1" d="M41.63,21.81h-1v-2l.19-2.22a6,6,0,0,1-2.78,3.26A8.26,8.26,0,0,1,33.83,22a8,8,0,0,1-5.68-2.17,7.45,7.45,0,0,1-2.32-5.73,7.53,7.53,0,0,1,2.29-5.71,7.86,7.86,0,0,1,5.64-2.18,8.64,8.64,0,0,1,4.43,1.2,5.52,5.52,0,0,1,2.67,3.36l-.19-2.5V6.4h1ZM33.73,7.12a6.89,6.89,0,0,0-5,1.9,6.72,6.72,0,0,0-2,5.08,6.59,6.59,0,0,0,2.05,5.09,7.09,7.09,0,0,0,5,1.9,6.31,6.31,0,0,0,5.11-2A7.63,7.63,0,0,0,40.7,14a6.9,6.9,0,0,0-1.82-4.87A6.68,6.68,0,0,0,33.73,7.12Z"/><path class="cls-1" d="M57.6,20.39l.55.52a3,3,0,0,1-2.19.88A3.11,3.11,0,0,1,53.77,21a2.79,2.79,0,0,1-.88-2.17,2.83,2.83,0,0,1,.87-2.18,3.13,3.13,0,0,1,2.2-.8,2.92,2.92,0,0,1,2.09.86l-.52.5A2.2,2.2,0,0,0,56,16.57a2.29,2.29,0,0,0-1.63.6,2.14,2.14,0,0,0-.65,1.64,2.11,2.11,0,0,0,.65,1.64A2.32,2.32,0,0,0,56,21,2.3,2.3,0,0,0,57.6,20.39Z"/><path class="cls-1" d="M62,15.81a3,3,0,0,1,2.18.84A2.89,2.89,0,0,1,65,18.82,2.85,2.85,0,0,1,64.16,21a3,3,0,0,1-2.19.82A3.05,3.05,0,0,1,59.79,21a2.84,2.84,0,0,1-.86-2.14,2.88,2.88,0,0,1,.85-2.17A3,3,0,0,1,62,15.81Zm1.62,1.36a2.33,2.33,0,0,0-3.23,0,2.26,2.26,0,0,0-.63,1.65,2.16,2.16,0,0,0,.63,1.62,2.24,2.24,0,0,0,3.86-1.62A2.26,2.26,0,0,0,63.59,17.17Z"/><path class="cls-1" d="M72,21.7h-.82V18.45a1.87,1.87,0,0,0-.51-1.4,2,2,0,0,0-1.42-.49,1.88,1.88,0,0,0-1.39.58,1.94,1.94,0,0,0-.55,1.41V21.7h-.8V15.91h.76l0,1a2.32,2.32,0,0,1,2.06-1.07,2.69,2.69,0,0,1,1.91.68A2.5,2.5,0,0,1,72,18.44Z"/><path class="cls-1" d="M78.12,16.58l-.46.52a2.56,2.56,0,0,0-1.75-.59,2.27,2.27,0,0,0-1.16.24.72.72,0,0,0-.45.7.62.62,0,0,0,.28.52,1.54,1.54,0,0,0,.57.29l.77.14.56.08.54.11a2.48,2.48,0,0,1,.54.2c.12.08.25.18.4.3a1,1,0,0,1,.31.44,1.8,1.8,0,0,1,.09.6,1.41,1.41,0,0,1-.37,1,2,2,0,0,1-.9.55,3.87,3.87,0,0,1-1.16.16,3.06,3.06,0,0,1-2.62-1.12l.5-.54a2.56,2.56,0,0,0,2.13.94,2.68,2.68,0,0,0,1.13-.23.74.74,0,0,0,.49-.74.83.83,0,0,0-.12-.46.82.82,0,0,0-.39-.3,3.14,3.14,0,0,0-.53-.16c-.16,0-.39-.07-.67-.11L75.16,19a4.62,4.62,0,0,1-.62-.18,2.26,2.26,0,0,1-.54-.28,1.37,1.37,0,0,1-.35-.43,1.34,1.34,0,0,1-.14-.61,1.38,1.38,0,0,1,.71-1.26,3.11,3.11,0,0,1,1.67-.41A3.21,3.21,0,0,1,78.12,16.58Z"/><path class="cls-1" d="M80.47,14.29l.81-.08v1.72H83.2v.66H81.28v3.27a1.49,1.49,0,0,0,.22.9.91.91,0,0,0,.78.3,2.14,2.14,0,0,0,.87-.22l.25.66a2.88,2.88,0,0,1-1.14.28,1.68,1.68,0,0,1-1.35-.49,2.11,2.11,0,0,1-.44-1.43V16.59H79.26v-.66h1.21Z"/><path class="cls-1" d="M84.48,15.91h.75l0,.95a1.71,1.71,0,0,1,.78-.79,2.6,2.6,0,0,1,1.1-.25,2.36,2.36,0,0,1,1.35.41l-.38.66a1.72,1.72,0,0,0-1-.31,1.87,1.87,0,0,0-1.31.53,1.75,1.75,0,0,0-.53,1.3V21.7h-.8Z"/><path class="cls-1" d="M89.41,15.91h.8v3.25a1.81,1.81,0,0,0,.52,1.39,1.89,1.89,0,0,0,1.42.49,1.85,1.85,0,0,0,1.4-.57,2,2,0,0,0,.54-1.41V15.91h.8V21.7h-.75l0-1A2.41,2.41,0,0,1,92,21.79a2.45,2.45,0,0,1-2.61-2.62Z"/><path class="cls-1" d="M101.08,20.39l.56.52a3,3,0,0,1-2.2.88A3.12,3.12,0,0,1,97.25,21a2.82,2.82,0,0,1-.88-2.17,2.83,2.83,0,0,1,.87-2.18,3.13,3.13,0,0,1,2.2-.8,2.92,2.92,0,0,1,2.1.86l-.53.5a2.18,2.18,0,0,0-1.56-.62,2.31,2.31,0,0,0-1.63.6,2.13,2.13,0,0,0-.64,1.64,2.1,2.1,0,0,0,.64,1.64,2.32,2.32,0,0,0,1.62.59A2.26,2.26,0,0,0,101.08,20.39Z"/><path class="cls-1" d="M103.64,14.29l.8-.08v1.72h1.92v.66h-1.92v3.27a1.49,1.49,0,0,0,.22.9.92.92,0,0,0,.79.3,2.14,2.14,0,0,0,.86-.22l.25.66a2.84,2.84,0,0,1-1.14.28,1.7,1.7,0,0,1-1.35-.49,2.11,2.11,0,0,1-.43-1.43V16.59h-1.21v-.66h1.21Z"/><path class="cls-1" d="M107.77,14.59a.49.49,0,0,1-.28-.49.5.5,0,0,1,.28-.49.64.64,0,0,1,.57,0,.5.5,0,0,1,.28.49.49.49,0,0,1-.28.49A.58.58,0,0,1,107.77,14.59Zm.68,1.3h-.81V21.7h.81Z"/><path class="cls-1" d="M113,15.81a3,3,0,0,1,2.17.84,2.89,2.89,0,0,1,.87,2.17,2.84,2.84,0,0,1-.85,2.15,3.31,3.31,0,0,1-4.37,0,2.81,2.81,0,0,1-.87-2.14,2.92,2.92,0,0,1,.85-2.17A3,3,0,0,1,113,15.81Zm1.61,1.36a2.32,2.32,0,0,0-3.22,0,2.26,2.26,0,0,0-.63,1.65,2.16,2.16,0,0,0,.63,1.62,2.24,2.24,0,0,0,3.85-1.62A2.26,2.26,0,0,0,114.59,17.17Z"/><path class="cls-1" d="M123,21.7h-.81V18.45a1.87,1.87,0,0,0-.52-1.4,2,2,0,0,0-1.42-.49,1.88,1.88,0,0,0-1.39.58,1.94,1.94,0,0,0-.55,1.41V21.7h-.8V15.91h.77l0,1a2.32,2.32,0,0,1,2.06-1.07,2.73,2.73,0,0,1,1.92.68,2.54,2.54,0,0,1,.72,1.94Z"/><rect class="cls-2" x="43.3" y="18.72" width="7.91" height="3.09"/></g></g></svg>