<svg xmlns="http://www.w3.org/2000/svg" viewBox="0 0 175 30"><defs><style>.cls-1{fill:#fff;}.cls-2{fill:#628451;}</style></defs><g id="Слой_2" data-name="Слой 2"><g id="Слой_1-2" data-name="Слой 1"><path class="cls-1" d="M0,1.62C0,.91.4.55,1.2.55S2.41.91,2.41,1.62a1.06,1.06,0,0,1-.59,1,1.3,1.3,0,0,1-1.21,0A1,1,0,0,1,0,1.62Zm1.82,7.1H.45v21H1.82Z"/><path class="cls-1" d="M30.52,29.74H29.16V27.06l.27-3a8.3,8.3,0,0,1-4,4.45,12.21,12.21,0,0,1-6,1.51,11.67,11.67,0,0,1-8.07-3,10,10,0,0,1-3.3-7.81,10,10,0,0,1,3.25-7.78,11.44,11.44,0,0,1,8-3,12.6,12.6,0,0,1,6.3,1.64,7.58,7.58,0,0,1,3.8,4.57l-.27-3.4V0h1.36ZM19.29,9.7a10,10,0,0,0-7,2.6,8.94,8.94,0,0,0-2.83,6.93,8.84,8.84,0,0,0,2.92,6.94,10.35,10.35,0,0,0,7.14,2.6q4.82,0,7.28-2.79a10.18,10.18,0,0,0,2.45-7,9.17,9.17,0,0,0-2.59-6.64A9.74,9.74,0,0,0,19.29,9.7Z"/><path class="cls-1" d="M59.23,29.74H57.86V27.06l.27-3a8.25,8.25,0,0,1-4,4.45,12.21,12.21,0,0,1-6,1.51,11.67,11.67,0,0,1-8.08-3,10,10,0,0,1-3.3-7.81A10,10,0,0,1,40,11.45a11.4,11.4,0,0,1,8-3,12.67,12.67,0,0,1,6.31,1.64,7.56,7.56,0,0,1,3.79,4.57l-.27-3.4V8.72h1.37ZM48,9.7a10,10,0,0,0-7.05,2.6,9,9,0,0,0-2.82,6.93A8.83,8.83,0,0,0,41,26.17a10.35,10.35,0,0,0,7.14,2.6c3.22,0,5.64-.93,7.28-2.79a10.14,10.14,0,0,0,2.46-7,9.18,9.18,0,0,0-2.6-6.64A9.74,9.74,0,0,0,48,9.7Z"/><path class="cls-1" d="M82,27.8l.78.72a4.45,4.45,0,0,1-3.12,1.19,4.52,4.52,0,0,1-3.11-1.1,3.73,3.73,0,0,1-1.26-3,3.78,3.78,0,0,1,1.24-3,4.61,4.61,0,0,1,3.13-1.09,4.25,4.25,0,0,1,3,1.17l-.75.68a3.2,3.2,0,0,0-2.22-.84,3.34,3.34,0,0,0-2.32.82,2.84,2.84,0,0,0-.92,2.22,2.85,2.85,0,0,0,.92,2.25,3.39,3.39,0,0,0,2.3.8A3.33,3.33,0,0,0,82,27.8Z"/><path class="cls-1" d="M88.17,21.56a4.36,4.36,0,0,1,3.1,1.15,3.82,3.82,0,0,1,1.24,2.95,3.82,3.82,0,0,1-1.22,2.94,4.46,4.46,0,0,1-3.12,1.11,4.41,4.41,0,0,1-3.1-1.12,3.79,3.79,0,0,1-1.23-2.93,3.91,3.91,0,0,1,1.21-3A4.38,4.38,0,0,1,88.17,21.56Zm2.3,1.85a3.43,3.43,0,0,0-4.59,0A3,3,0,0,0,85,25.66a2.88,2.88,0,0,0,.89,2.21,3.58,3.58,0,0,0,4.61,0,2.94,2.94,0,0,0,.87-2.21A3,3,0,0,0,90.47,23.41Z"/><path class="cls-1" d="M102.44,29.58h-1.16V25.16a2.46,2.46,0,0,0-.74-1.91,2.86,2.86,0,0,0-2-.67,2.74,2.74,0,0,0-2,.79,2.6,2.6,0,0,0-.77,1.92v4.29H94.62V21.7h1.1l0,1.33a3.34,3.34,0,0,1,2.93-1.46,3.89,3.89,0,0,1,2.72.93,3.38,3.38,0,0,1,1,2.65Z"/><path class="cls-1" d="M111.15,22.61l-.66.7a3.74,3.74,0,0,0-2.49-.79,3.55,3.55,0,0,0-1.65.31,1,1,0,0,0-.64,1,.86.86,0,0,0,.39.72,2.28,2.28,0,0,0,.81.38,10.58,10.58,0,0,0,1.1.19l.81.12.76.16a2.36,2.36,0,0,1,.76.27,4.29,4.29,0,0,1,.57.4,1.33,1.33,0,0,1,.45.6,2.28,2.28,0,0,1,.13.82,1.91,1.91,0,0,1-.53,1.32,2.8,2.8,0,0,1-1.27.76,6.18,6.18,0,0,1-1.66.21,4.46,4.46,0,0,1-3.73-1.53l.71-.73a3.72,3.72,0,0,0,3,1.27,4,4,0,0,0,1.6-.3,1,1,0,0,0,.7-1,1,1,0,0,0-.73-1,5,5,0,0,0-.74-.22c-.24-.05-.56-.1-1-.15l-1-.16a8.09,8.09,0,0,1-.88-.25,3.07,3.07,0,0,1-.77-.38,1.93,1.93,0,0,1-.49-.59,1.62,1.62,0,0,1-.2-.83,1.86,1.86,0,0,1,1-1.71,4.58,4.58,0,0,1,2.39-.57A4.71,4.71,0,0,1,111.15,22.61Z"/><path class="cls-1" d="M114.5,19.48l1.14-.11v2.35h2.73v.91h-2.73v4.45a2,2,0,0,0,.31,1.23,1.35,1.35,0,0,0,1.12.41,3.22,3.22,0,0,0,1.23-.3l.36.89a4,4,0,0,1-1.62.39,2.41,2.41,0,0,1-1.93-.67,2.8,2.8,0,0,1-.61-2V22.63h-1.73v-.91h1.73Z"/><path class="cls-1" d="M120.19,21.7h1.08l.07,1.29a2.38,2.38,0,0,1,1.1-1.07,3.68,3.68,0,0,1,1.57-.35,3.4,3.4,0,0,1,1.91.56l-.52.9a2.64,2.64,0,0,0-1.45-.42,2.67,2.67,0,0,0-1.86.72,2.33,2.33,0,0,0-.75,1.77v4.48h-1.15Z"/><path class="cls-1" d="M127.2,21.7h1.15v4.42a2.47,2.47,0,0,0,.74,1.91,2.83,2.83,0,0,0,2,.66,2.72,2.72,0,0,0,2-.77,2.61,2.61,0,0,0,.77-1.93V21.7H135v7.88h-1.06l0-1.32a3.47,3.47,0,0,1-3,1.45,3.77,3.77,0,0,1-2.69-1,3.4,3.4,0,0,1-1-2.61Z"/><path class="cls-1" d="M143.82,27.8l.78.72a4.45,4.45,0,0,1-3.12,1.19,4.52,4.52,0,0,1-3.11-1.1,3.73,3.73,0,0,1-1.26-3,3.78,3.78,0,0,1,1.24-3,4.61,4.61,0,0,1,3.13-1.09,4.25,4.25,0,0,1,3,1.17l-.75.68a3.2,3.2,0,0,0-2.22-.84,3.34,3.34,0,0,0-2.32.82,2.84,2.84,0,0,0-.92,2.22,2.85,2.85,0,0,0,.92,2.25,3.39,3.39,0,0,0,2.3.8A3.33,3.33,0,0,0,143.82,27.8Z"/><path class="cls-1" d="M147.45,19.48l1.14-.11v2.35h2.73v.91h-2.73v4.45a2,2,0,0,0,.32,1.23,1.34,1.34,0,0,0,1.12.41,3.14,3.14,0,0,0,1.22-.3l.36.89a4,4,0,0,1-1.62.39,2.39,2.39,0,0,1-1.92-.67,2.8,2.8,0,0,1-.62-2V22.63h-1.72v-.91h1.72Z"/><path class="cls-1" d="M153.34,19.9a.76.76,0,0,1,0-1.34.89.89,0,0,1,.81,0,.69.69,0,0,1,.41.67.69.69,0,0,1-.4.67A.89.89,0,0,1,153.34,19.9Zm.95,1.77h-1.14v7.91h1.14Z"/><path class="cls-1" d="M160.74,21.56a4.37,4.37,0,0,1,3.1,1.15,3.85,3.85,0,0,1,1.23,2.95,3.79,3.79,0,0,1-1.22,2.94,4.88,4.88,0,0,1-6.21,0,3.79,3.79,0,0,1-1.23-2.93,3.88,3.88,0,0,1,1.21-3A4.38,4.38,0,0,1,160.74,21.56Zm2.3,1.85a3.14,3.14,0,0,0-2.3-.88,3.11,3.11,0,0,0-2.29.88,3,3,0,0,0-.9,2.25,2.89,2.89,0,0,0,.9,2.21,3.57,3.57,0,0,0,4.6,0,2.91,2.91,0,0,0,.88-2.21A3,3,0,0,0,163,23.41Z"/><path class="cls-1" d="M175,29.58h-1.16V25.16a2.45,2.45,0,0,0-.73-1.91,2.87,2.87,0,0,0-2-.67,2.71,2.71,0,0,0-2,.79,2.61,2.61,0,0,0-.78,1.92v4.29h-1.14V21.7h1.09l0,1.33a3.35,3.35,0,0,1,2.94-1.46,3.92,3.92,0,0,1,2.72.93,3.37,3.37,0,0,1,1,2.65Z"/><rect class="cls-2" x="61.6" y="25.53" width="11.25" height="4.22"/></g></g></svg>