<svg xmlns="http://www.w3.org/2000/svg" viewBox="0 0 59.23 30"><defs><style>.cls-1{fill:#fff;}</style></defs><g id="Слой_2" data-name="Слой 2"><g id="Слой_1-2" data-name="Слой 1"><path class="cls-1" d="M0,1.62C0,.91.4.55,1.2.55S2.41.91,2.41,1.62a1.06,1.06,0,0,1-.59,1,1.3,1.3,0,0,1-1.21,0A1,1,0,0,1,0,1.62Zm1.82,7.1H.45v21H1.82Z"/><path class="cls-1" d="M30.52,29.74H29.16V27.06l.27-3a8.3,8.3,0,0,1-4,4.45,12.21,12.21,0,0,1-6,1.51,11.67,11.67,0,0,1-8.07-3,10,10,0,0,1-3.3-7.81,10,10,0,0,1,3.25-7.78,11.44,11.44,0,0,1,8-3,12.6,12.6,0,0,1,6.3,1.64,7.58,7.58,0,0,1,3.8,4.57l-.27-3.4V0h1.36ZM19.29,9.7a10,10,0,0,0-7,2.6,8.94,8.94,0,0,0-2.83,6.93,8.84,8.84,0,0,0,2.92,6.94,10.35,10.35,0,0,0,7.14,2.6q4.82,0,7.28-2.79a10.18,10.18,0,0,0,2.45-7,9.17,9.17,0,0,0-2.59-6.64A9.74,9.74,0,0,0,19.29,9.7Z"/><path class="cls-1" d="M59.23,20.46c-.56,2.15-2.43,4-3.78,5.52-1.64,1.86-4.06,2.79-7.28,2.79A10.35,10.35,0,0,1,41,26.17a8.83,8.83,0,0,1-2.91-6.94,9,9,0,0,1,2.82-6.93A10,10,0,0,1,48,9.7a9.74,9.74,0,0,1,7.32,2.68,23.37,23.37,0,0,1,3.92,5.1h0V8.72H57.86v2.56l.27,3.4a7.56,7.56,0,0,0-3.79-4.57A12.67,12.67,0,0,0,48,8.47a11.4,11.4,0,0,0-8,3,10,10,0,0,0-3.26,7.78A10,10,0,0,0,40.05,27a11.67,11.67,0,0,0,8.08,3,12.21,12.21,0,0,0,6-1.51,8.25,8.25,0,0,0,4-4.45l-.27,3v2.68h1.37V20.46Z"/></g></g></svg>