<svg width="158" height="38" viewBox="0 0 158 38" fill="none" xmlns="http://www.w3.org/2000/svg">
<path d="M2.176 30V7.28H7.424V30H2.176ZM11.7698 30V7.28H20.2498C22.7458 7.28 24.8258 7.792 26.4897 8.816C28.1751 9.81867 29.4444 11.184 30.2978 12.912C31.1511 14.6187 31.5778 16.5173 31.5778 18.608C31.5778 20.912 31.1084 22.9173 30.1698 24.624C29.2311 26.3307 27.9084 27.6533 26.2018 28.592C24.5164 29.5307 22.5324 30 20.2498 30H11.7698ZM26.2338 18.608C26.2338 17.2853 25.9991 16.1227 25.5298 15.12C25.0604 14.096 24.3778 13.3067 23.4818 12.752C22.5858 12.176 21.5084 11.888 20.2498 11.888H17.0178V25.392H20.2498C21.5298 25.392 22.6071 25.104 23.4818 24.528C24.3778 23.9307 25.0604 23.12 25.5298 22.096C25.9991 21.0507 26.2338 19.888 26.2338 18.608ZM39.4978 7.28H45.1618L52.9698 30H47.5938L45.8338 24.912H38.7618L37.0338 30H31.6578L39.4978 7.28ZM44.9698 21.296L42.3138 12.56L39.5938 21.296H44.9698Z" fill="white" fill-opacity="0.3"/>
<path d="M68.832 30.16C68.2027 30.16 67.6267 30.048 67.104 29.824C66.592 29.5893 66.144 29.2693 65.76 28.864C65.3867 28.4587 65.0933 27.9947 64.88 27.472C64.6773 26.9493 64.576 26.3947 64.576 25.808C64.576 25.0187 64.752 24.2987 65.104 23.648C65.456 22.9973 65.952 22.48 66.592 22.096C67.232 21.7013 67.9733 21.504 68.816 21.504C69.6373 21.504 70.352 21.6907 70.96 22.064C71.5787 22.4267 72.0373 22.9173 72.336 23.536L70.96 23.968C70.7467 23.5733 70.448 23.2693 70.064 23.056C69.68 22.832 69.2533 22.72 68.784 22.72C68.272 22.72 67.8027 22.8533 67.376 23.12C66.96 23.3867 66.6293 23.7547 66.384 24.224C66.1387 24.6827 66.016 25.2107 66.016 25.808C66.016 26.3947 66.1387 26.928 66.384 27.408C66.64 27.8773 66.976 28.2507 67.392 28.528C67.8187 28.8053 68.288 28.944 68.8 28.944C69.1307 28.944 69.4453 28.8853 69.744 28.768C70.0533 28.6507 70.32 28.496 70.544 28.304C70.7787 28.1013 70.9387 27.8827 71.024 27.648L72.4 28.064C72.2293 28.4693 71.968 28.832 71.616 29.152C71.2747 29.4613 70.864 29.7067 70.384 29.888C69.9147 30.0693 69.3973 30.16 68.832 30.16ZM77.5653 30.16C76.9359 30.16 76.3653 30.048 75.8533 29.824C75.3413 29.5893 74.8986 29.2747 74.5253 28.88C74.1519 28.4747 73.8639 28.0107 73.6613 27.488C73.4586 26.9653 73.3573 26.416 73.3573 25.84C73.3573 25.2533 73.4586 24.6987 73.6613 24.176C73.8639 23.6533 74.1519 23.1947 74.5253 22.8C74.8986 22.3947 75.3413 22.08 75.8533 21.856C76.3759 21.6213 76.9466 21.504 77.5653 21.504C78.1946 21.504 78.7653 21.6213 79.2773 21.856C79.7893 22.08 80.2319 22.3947 80.6053 22.8C80.9893 23.1947 81.2826 23.6533 81.4853 24.176C81.6879 24.6987 81.7893 25.2533 81.7893 25.84C81.7893 26.416 81.6879 26.9653 81.4853 27.488C81.2826 28.0107 80.9946 28.4747 80.6213 28.88C80.2479 29.2747 79.7999 29.5893 79.2773 29.824C78.7653 30.048 78.1946 30.16 77.5653 30.16ZM74.7973 25.856C74.7973 26.432 74.9199 26.9547 75.1653 27.424C75.4213 27.8933 75.7573 28.2667 76.1733 28.544C76.5893 28.8107 77.0533 28.944 77.5653 28.944C78.0773 28.944 78.5413 28.8053 78.9573 28.528C79.3839 28.2507 79.7199 27.8773 79.9653 27.408C80.2213 26.928 80.3493 26.4 80.3493 25.824C80.3493 25.248 80.2213 24.7253 79.9653 24.256C79.7199 23.7867 79.3839 23.4133 78.9573 23.136C78.5413 22.8587 78.0773 22.72 77.5653 22.72C77.0533 22.72 76.5893 22.864 76.1733 23.152C75.7573 23.4293 75.4213 23.8027 75.1653 24.272C74.9199 24.7413 74.7973 25.2693 74.7973 25.856ZM90.7434 30H89.3354V25.328C89.3354 24.4427 89.1967 23.7973 88.9194 23.392C88.6527 22.976 88.242 22.768 87.6874 22.768C87.3034 22.768 86.9194 22.864 86.5354 23.056C86.162 23.248 85.826 23.5093 85.5274 23.84C85.2394 24.16 85.0314 24.5333 84.9034 24.96V30H83.4954V21.648H84.7754V23.44C84.9994 23.0453 85.2874 22.704 85.6394 22.416C85.9914 22.128 86.3914 21.904 86.8394 21.744C87.2874 21.584 87.7567 21.504 88.2474 21.504C88.7274 21.504 89.1274 21.5947 89.4474 21.776C89.778 21.9467 90.034 22.192 90.2154 22.512C90.4074 22.8213 90.5407 23.1893 90.6154 23.616C90.7007 24.0427 90.7434 24.5067 90.7434 25.008V30ZM95.7969 30.16C95.1035 30.16 94.4529 30.048 93.8449 29.824C93.2369 29.5893 92.7142 29.2427 92.2769 28.784L92.8209 27.792C93.3009 28.24 93.7809 28.56 94.2609 28.752C94.7409 28.944 95.2315 29.04 95.7329 29.04C96.3089 29.04 96.7782 28.9333 97.1409 28.72C97.5035 28.496 97.6849 28.1707 97.6849 27.744C97.6849 27.4347 97.5889 27.2053 97.3969 27.056C97.2155 26.9067 96.9542 26.784 96.6129 26.688C96.2715 26.5813 95.8662 26.464 95.3969 26.336C94.8209 26.1653 94.3355 25.984 93.9409 25.792C93.5462 25.6 93.2475 25.36 93.0449 25.072C92.8422 24.784 92.7409 24.4213 92.7409 23.984C92.7409 23.4507 92.8795 23.0027 93.1569 22.64C93.4342 22.2667 93.8129 21.984 94.2929 21.792C94.7835 21.6 95.3382 21.504 95.9569 21.504C96.5755 21.504 97.1355 21.6 97.6369 21.792C98.1382 21.984 98.5702 22.2667 98.9329 22.64L98.2929 23.616C97.9622 23.2747 97.5995 23.024 97.2049 22.864C96.8102 22.6933 96.3675 22.608 95.8769 22.608C95.5889 22.608 95.3062 22.6453 95.0289 22.72C94.7515 22.784 94.5222 22.9067 94.3409 23.088C94.1595 23.2587 94.0689 23.504 94.0689 23.824C94.0689 24.0907 94.1382 24.304 94.2769 24.464C94.4262 24.6133 94.6395 24.7413 94.9169 24.848C95.2049 24.9547 95.5515 25.072 95.9569 25.2C96.5862 25.3813 97.1302 25.5627 97.5889 25.744C98.0582 25.9253 98.4209 26.16 98.6769 26.448C98.9329 26.736 99.0609 27.136 99.0609 27.648C99.0609 28.4373 98.7622 29.056 98.1649 29.504C97.5675 29.9413 96.7782 30.16 95.7969 30.16ZM105.065 29.584C104.948 29.6373 104.788 29.7067 104.585 29.792C104.383 29.8773 104.148 29.952 103.881 30.016C103.615 30.08 103.332 30.112 103.033 30.112C102.692 30.112 102.377 30.0533 102.089 29.936C101.801 29.808 101.572 29.616 101.401 29.36C101.231 29.0933 101.145 28.7627 101.145 28.368V22.752H100.009V21.648H101.145V18.864H102.553V21.648H104.425V22.752H102.553V27.936C102.575 28.2347 102.676 28.4587 102.857 28.608C103.039 28.7467 103.252 28.816 103.497 28.816C103.775 28.816 104.031 28.768 104.265 28.672C104.5 28.576 104.655 28.5067 104.729 28.464L105.065 29.584ZM110.786 22.88C110.082 22.8907 109.458 23.072 108.914 23.424C108.381 23.7653 108.002 24.24 107.778 24.848V30H106.37V21.648H107.682V23.584C107.97 23.008 108.349 22.544 108.818 22.192C109.298 21.8293 109.8 21.6267 110.322 21.584C110.429 21.584 110.52 21.584 110.594 21.584C110.669 21.584 110.733 21.5893 110.786 21.6V22.88ZM112.103 26.656V21.648H113.511V26.384C113.511 27.2373 113.66 27.8773 113.959 28.304C114.258 28.7307 114.7 28.944 115.287 28.944C115.671 28.944 116.039 28.864 116.391 28.704C116.754 28.5333 117.079 28.2933 117.367 27.984C117.655 27.6747 117.879 27.3067 118.039 26.88V21.648H119.447V28.4C119.447 28.5707 119.479 28.6987 119.543 28.784C119.618 28.8587 119.735 28.9013 119.895 28.912V30C119.735 30.0213 119.607 30.032 119.511 30.032C119.426 30.0427 119.34 30.048 119.255 30.048C118.988 30.048 118.759 29.968 118.567 29.808C118.375 29.6373 118.274 29.4293 118.263 29.184L118.231 28.208C117.868 28.8267 117.378 29.3067 116.759 29.648C116.151 29.9893 115.484 30.16 114.759 30.16C113.884 30.16 113.223 29.8667 112.775 29.28C112.327 28.6827 112.103 27.808 112.103 26.656ZM125.488 30.16C124.859 30.16 124.283 30.048 123.76 29.824C123.248 29.5893 122.8 29.2693 122.416 28.864C122.043 28.4587 121.75 27.9947 121.536 27.472C121.334 26.9493 121.232 26.3947 121.232 25.808C121.232 25.0187 121.408 24.2987 121.76 23.648C122.112 22.9973 122.608 22.48 123.248 22.096C123.888 21.7013 124.63 21.504 125.472 21.504C126.294 21.504 127.008 21.6907 127.616 22.064C128.235 22.4267 128.694 22.9173 128.992 23.536L127.616 23.968C127.403 23.5733 127.104 23.2693 126.72 23.056C126.336 22.832 125.91 22.72 125.44 22.72C124.928 22.72 124.459 22.8533 124.032 23.12C123.616 23.3867 123.286 23.7547 123.04 24.224C122.795 24.6827 122.672 25.2107 122.672 25.808C122.672 26.3947 122.795 26.928 123.04 27.408C123.296 27.8773 123.632 28.2507 124.048 28.528C124.475 28.8053 124.944 28.944 125.456 28.944C125.787 28.944 126.102 28.8853 126.4 28.768C126.71 28.6507 126.976 28.496 127.2 28.304C127.435 28.1013 127.595 27.8827 127.68 27.648L129.056 28.064C128.886 28.4693 128.624 28.832 128.272 29.152C127.931 29.4613 127.52 29.7067 127.04 29.888C126.571 30.0693 126.054 30.16 125.488 30.16ZM134.972 29.584C134.854 29.6373 134.694 29.7067 134.492 29.792C134.289 29.8773 134.054 29.952 133.788 30.016C133.521 30.08 133.238 30.112 132.94 30.112C132.598 30.112 132.284 30.0533 131.996 29.936C131.708 29.808 131.478 29.616 131.308 29.36C131.137 29.0933 131.052 28.7627 131.052 28.368V22.752H129.916V21.648H131.052V18.864H132.46V21.648H134.332V22.752H132.46V27.936C132.481 28.2347 132.582 28.4587 132.764 28.608C132.945 28.7467 133.158 28.816 133.404 28.816C133.681 28.816 133.937 28.768 134.172 28.672C134.406 28.576 134.561 28.5067 134.636 28.464L134.972 29.584ZM136.277 30V21.648H137.685V30H136.277ZM136.277 20.08V18.32H137.685V20.08H136.277ZM143.612 30.16C142.983 30.16 142.412 30.048 141.9 29.824C141.388 29.5893 140.945 29.2747 140.572 28.88C140.199 28.4747 139.911 28.0107 139.708 27.488C139.505 26.9653 139.404 26.416 139.404 25.84C139.404 25.2533 139.505 24.6987 139.708 24.176C139.911 23.6533 140.199 23.1947 140.572 22.8C140.945 22.3947 141.388 22.08 141.9 21.856C142.423 21.6213 142.993 21.504 143.612 21.504C144.241 21.504 144.812 21.6213 145.324 21.856C145.836 22.08 146.279 22.3947 146.652 22.8C147.036 23.1947 147.329 23.6533 147.532 24.176C147.735 24.6987 147.836 25.2533 147.836 25.84C147.836 26.416 147.735 26.9653 147.532 27.488C147.329 28.0107 147.041 28.4747 146.668 28.88C146.295 29.2747 145.847 29.5893 145.324 29.824C144.812 30.048 144.241 30.16 143.612 30.16ZM140.844 25.856C140.844 26.432 140.967 26.9547 141.212 27.424C141.468 27.8933 141.804 28.2667 142.22 28.544C142.636 28.8107 143.1 28.944 143.612 28.944C144.124 28.944 144.588 28.8053 145.004 28.528C145.431 28.2507 145.767 27.8773 146.012 27.408C146.268 26.928 146.396 26.4 146.396 25.824C146.396 25.248 146.268 24.7253 146.012 24.256C145.767 23.7867 145.431 23.4133 145.004 23.136C144.588 22.8587 144.124 22.72 143.612 22.72C143.1 22.72 142.636 22.864 142.22 23.152C141.804 23.4293 141.468 23.8027 141.212 24.272C140.967 24.7413 140.844 25.2693 140.844 25.856ZM156.79 30H155.382V25.328C155.382 24.4427 155.244 23.7973 154.966 23.392C154.7 22.976 154.289 22.768 153.734 22.768C153.35 22.768 152.966 22.864 152.582 23.056C152.209 23.248 151.873 23.5093 151.574 23.84C151.286 24.16 151.078 24.5333 150.95 24.96V30H149.542V21.648H150.822V23.44C151.046 23.0453 151.334 22.704 151.686 22.416C152.038 22.128 152.438 21.904 152.886 21.744C153.334 21.584 153.804 21.504 154.294 21.504C154.774 21.504 155.174 21.5947 155.494 21.776C155.825 21.9467 156.081 22.192 156.262 22.512C156.454 22.8213 156.588 23.1893 156.662 23.616C156.748 24.0427 156.79 24.5067 156.79 25.008V30Z" fill="white" fill-opacity="0.3"/>
</svg>
