<svg width="25" height="25" viewBox="0 0 25 25" fill="none" xmlns="http://www.w3.org/2000/svg">
<path d="M6.92457 20.6516C8.41774 21.5629 10.2139 22.0764 12.0139 22.09C17.5137 22.1315 22.0475 17.6656 22.089 12.1657C22.1305 6.6659 17.6646 2.13208 12.1648 2.09058C6.66491 2.04909 2.13109 6.51501 2.08959 12.0149C2.07601 13.8148 2.56318 15.5185 3.35184 17.0245L2.46692 20.3239C2.42126 20.4943 2.42146 20.6736 2.46749 20.8439C2.51352 21.0141 2.60375 21.1691 2.72903 21.2932C2.8543 21.4173 3.01017 21.5061 3.18082 21.5506C3.35147 21.595 3.53084 21.5935 3.70073 21.5463L6.92457 20.6516Z" stroke="white" stroke-width="1.5" stroke-miterlimit="10" stroke-linecap="round" stroke-linejoin="round"/>
<path d="M16.5683 14.9718C16.5671 15.1338 16.5298 15.3006 16.4516 15.462C16.3718 15.6288 16.2675 15.7827 16.1422 15.9187C15.9193 16.16 15.675 16.3331 15.3982 16.4441C15.1273 16.555 14.8339 16.6108 14.5189 16.6084C14.0589 16.605 13.5688 16.4933 13.0514 16.2693C12.5046 16.0273 11.9869 15.7242 11.5082 15.3657C10.9876 14.9793 10.4967 14.5544 10.0398 14.0946C9.58769 13.6333 9.17121 13.1384 8.7939 12.6141C8.44713 12.1344 8.15455 11.6177 7.9215 11.0735C7.70939 10.5569 7.60509 10.0661 7.60861 9.59909C7.61092 9.2931 7.66712 9.00152 7.77715 8.73234C7.88723 8.45816 8.06112 8.20747 8.30181 7.98428C8.59195 7.70246 8.90799 7.56584 9.24198 7.56836C9.36797 7.56931 9.49377 7.59726 9.60636 7.65211C9.72295 7.70699 9.82533 7.78877 9.90645 7.90638L10.9413 9.38623C11.0205 9.49883 11.0797 9.60328 11.1189 9.70258C11.1582 9.79688 11.1805 9.89205 11.1799 9.97705C11.1777 10.0905 11.144 10.201 11.0824 10.2963C11.0121 10.4129 10.9266 10.5195 10.828 10.6134L10.4824 10.9668C10.4583 10.99 10.4394 11.0179 10.4268 11.0488C10.4141 11.0797 10.4081 11.1129 10.409 11.1463C10.4088 11.1813 10.4135 11.2133 10.4222 11.2494C10.435 11.2855 10.4488 11.3126 10.4576 11.3396C10.5364 11.4892 10.675 11.6833 10.8722 11.9188C11.0734 12.1543 11.2876 12.3949 11.5198 12.6347C11.762 12.8755 11.9943 13.0973 12.2318 13.3021C12.4643 13.5008 12.6573 13.6373 12.8097 13.7195L12.8914 13.7571C12.9272 13.7702 12.9651 13.7765 13.0033 13.7759C13.0377 13.7769 13.0721 13.7707 13.104 13.7577C13.136 13.7447 13.1649 13.7251 13.1888 13.7003L13.5334 13.3649C13.6472 13.2538 13.7558 13.1696 13.8603 13.1154C13.9564 13.0551 14.0676 13.0234 14.181 13.0238C14.2756 13.0259 14.3689 13.0466 14.4555 13.0848C14.5542 13.1256 14.6578 13.1844 14.7692 13.2622L16.2532 14.3314C16.3607 14.4026 16.446 14.5027 16.499 14.6203C16.5449 14.7318 16.5685 14.8513 16.5683 14.9718Z" stroke="white" stroke-width="1.5" stroke-miterlimit="10"/>
</svg>
