<svg width="24" height="24" viewBox="0 0 24 24" fill="none" xmlns="http://www.w3.org/2000/svg">
<path d="M3 21V19.5H5V4.5C5 4.1 5.15 3.75 5.45 3.45C5.75 3.15 6.1 3 6.5 3H17.5C17.9 3 18.25 3.15 18.55 3.45C18.85 3.75 19 4.1 19 4.5V19.5H21V21H3ZM6.5 19.5H17.5V4.5H6.5V19.5ZM9.825 12.775C10.0583 12.775 10.2583 12.6917 10.425 12.525C10.5917 12.3583 10.675 12.1583 10.675 11.925C10.675 11.6917 10.5917 11.4917 10.425 11.325C10.2583 11.1583 10.0583 11.075 9.825 11.075C9.59167 11.075 9.39167 11.1583 9.225 11.325C9.05833 11.4917 8.975 11.6917 8.975 11.925C8.975 12.1583 9.05833 12.3583 9.225 12.525C9.39167 12.6917 9.59167 12.775 9.825 12.775Z" fill="white"/>
</svg>
