<svg width="24" height="24" viewBox="0 0 24 24" fill="none" xmlns="http://www.w3.org/2000/svg">
<path d="M5.325 19.625C4.59167 18.875 4.02083 18.0083 3.6125 17.025C3.20417 16.0416 3 15.0333 3 14C3 12.7833 3.2125 11.6708 3.6375 10.6625C4.0625 9.65413 4.7 8.72497 5.55 7.87497C6.13333 7.29163 6.85833 6.79997 7.725 6.39997C8.59167 5.99997 9.6125 5.68747 10.7875 5.46247C11.9625 5.23747 13.2917 5.0958 14.775 5.03747C16.2583 4.97913 17.9083 5.0083 19.725 5.12497C19.8583 6.92497 19.9042 8.5708 19.8625 10.0625C19.8208 11.5541 19.6875 12.8916 19.4625 14.075C19.2375 15.2583 18.9208 16.2958 18.5125 17.1875C18.1042 18.0791 17.6 18.825 17 19.425C16.15 20.275 15.2333 20.9166 14.25 21.35C13.2667 21.7833 12.2167 22 11.1 22C9.95 22 8.89583 21.8041 7.9375 21.4125C6.97917 21.0208 6.10833 20.425 5.325 19.625ZM7.9 19.625C8.31667 19.9083 8.8 20.125 9.35 20.275C9.9 20.425 10.4833 20.5 11.1 20.5C11.9833 20.5 12.8417 20.3166 13.675 19.95C14.5083 19.5833 15.2667 19.05 15.95 18.35C16.4 17.9 16.7833 17.3125 17.1 16.5875C17.4167 15.8625 17.675 15.0041 17.875 14.0125C18.075 13.0208 18.2083 11.9 18.275 10.65C18.3417 9.39997 18.3417 8.02497 18.275 6.52497C16.7083 6.49163 15.3042 6.51247 14.0625 6.58747C12.8208 6.66247 11.725 6.79997 10.775 6.99997C9.825 7.19997 9.00833 7.45413 8.325 7.76247C7.64167 8.0708 7.08333 8.44997 6.65 8.89997C5.95 9.61663 5.41667 10.375 5.05 11.175C4.68333 11.975 4.5 12.7916 4.5 13.625C4.5 14.425 4.67083 15.2625 5.0125 16.1375C5.35417 17.0125 5.775 17.7166 6.275 18.25C7.15833 16.6166 8.21667 15.15 9.45 13.85C10.6833 12.55 11.9917 11.525 13.375 10.775C11.925 12.025 10.75 13.3791 9.85 14.8375C8.95 16.2958 8.3 17.8916 7.9 19.625Z" fill="white"/>
</svg>
