<svg width="24" height="24" viewBox="0 0 24 24" fill="none" xmlns="http://www.w3.org/2000/svg">
<path d="M4.825 21C4.625 21 4.45 20.925 4.3 20.775C4.15 20.625 4.075 20.45 4.075 20.25V19.2H3.75C2.98333 19.2 2.33333 18.9333 1.8 18.4C1.26667 17.8667 1 17.2167 1 16.45V10.35C1 9.5 1.25833 8.85417 1.775 8.4125C2.29167 7.97083 2.9 7.75 3.6 7.75V5.6C3.6 4.83333 3.84167 4.20833 4.325 3.725C4.80833 3.24167 5.43333 3 6.2 3H17.825C18.5917 3 19.2125 3.24167 19.6875 3.725C20.1625 4.20833 20.4 4.83333 20.4 5.6V7.75C21.1 7.75 21.7083 7.97083 22.225 8.4125C22.7417 8.85417 23 9.5 23 10.35V16.45C23 17.2167 22.7333 17.8667 22.2 18.4C21.6667 18.9333 21.0167 19.2 20.25 19.2H19.925V20.25C19.925 20.45 19.85 20.625 19.7 20.775C19.55 20.925 19.375 21 19.175 21C18.975 21 18.8 20.925 18.65 20.775C18.5 20.625 18.425 20.45 18.425 20.25V19.2H5.575V20.25C5.575 20.45 5.5 20.625 5.35 20.775C5.2 20.925 5.025 21 4.825 21ZM3.75 17.7H20.25C20.5833 17.7 20.875 17.575 21.125 17.325C21.375 17.075 21.5 16.7833 21.5 16.45V10.35C21.5 10.0167 21.4 9.75 21.2 9.55C21 9.35 20.7333 9.25 20.4 9.25C20.0667 9.25 19.8 9.35 19.6 9.55C19.4 9.75 19.3 10.0167 19.3 10.35V14.75H4.7V10.35C4.7 10.0167 4.6 9.75 4.4 9.55C4.2 9.35 3.93333 9.25 3.6 9.25C3.26667 9.25 3 9.35 2.8 9.55C2.6 9.75 2.5 10.0167 2.5 10.35V16.45C2.5 16.7833 2.625 17.075 2.875 17.325C3.125 17.575 3.41667 17.7 3.75 17.7ZM6.2 13.25H17.8V10.35C17.8 9.83333 17.9167 9.40417 18.15 9.0625C18.3833 8.72083 18.6333 8.45 18.9 8.25V5.6C18.9 5.26667 18.8 5 18.6 4.8C18.4 4.6 18.1333 4.5 17.8 4.5H6.2C5.86667 4.5 5.6 4.6 5.4 4.8C5.2 5 5.1 5.26667 5.1 5.6V8.25C5.36667 8.45 5.61667 8.72083 5.85 9.0625C6.08333 9.40417 6.2 9.83333 6.2 10.35V13.25Z" fill="white"/>
</svg>
