<svg width="24" height="24" viewBox="0 0 24 24" fill="none" xmlns="http://www.w3.org/2000/svg">
<path d="M12 22.5C10.95 22.5 10.0625 22.1375 9.3375 21.4125C8.6125 20.6875 8.25 19.8 8.25 18.75C8.25 17.8333 8.5375 17.0375 9.1125 16.3625C9.6875 15.6875 10.4 15.2583 11.25 15.075V12.75H5.25V9H2.5V2H9.5V9H6.75V11.25H17.25V8.925C16.4 8.74167 15.6875 8.3125 15.1125 7.6375C14.5375 6.9625 14.25 6.16667 14.25 5.25C14.25 4.2 14.6125 3.3125 15.3375 2.5875C16.0625 1.8625 16.95 1.5 18 1.5C19.05 1.5 19.9375 1.8625 20.6625 2.5875C21.3875 3.3125 21.75 4.2 21.75 5.25C21.75 6.16667 21.4625 6.9625 20.8875 7.6375C20.3125 8.3125 19.6 8.74167 18.75 8.925V12.75H12.75V15.075C13.6 15.2583 14.3125 15.6875 14.8875 16.3625C15.4625 17.0375 15.75 17.8333 15.75 18.75C15.75 19.8 15.3875 20.6875 14.6625 21.4125C13.9375 22.1375 13.05 22.5 12 22.5ZM18 7.5C18.6167 7.5 19.1458 7.27917 19.5875 6.8375C20.0292 6.39583 20.25 5.86667 20.25 5.25C20.25 4.63333 20.0292 4.10417 19.5875 3.6625C19.1458 3.22083 18.6167 3 18 3C17.3833 3 16.8542 3.22083 16.4125 3.6625C15.9708 4.10417 15.75 4.63333 15.75 5.25C15.75 5.86667 15.9708 6.39583 16.4125 6.8375C16.8542 7.27917 17.3833 7.5 18 7.5ZM4 7.5H8V3.5H4V7.5ZM12 21C12.6167 21 13.1458 20.7792 13.5875 20.3375C14.0292 19.8958 14.25 19.3667 14.25 18.75C14.25 18.1333 14.0292 17.6042 13.5875 17.1625C13.1458 16.7208 12.6167 16.5 12 16.5C11.3833 16.5 10.8542 16.7208 10.4125 17.1625C9.97083 17.6042 9.75 18.1333 9.75 18.75C9.75 19.3667 9.97083 19.8958 10.4125 20.3375C10.8542 20.7792 11.3833 21 12 21Z" fill="white"/>
</svg>
