<svg width="24" height="24" viewBox="0 0 24 24" fill="none" xmlns="http://www.w3.org/2000/svg">
<path d="M4.5 21C4.08333 21 3.72917 20.8542 3.4375 20.5625C3.14583 20.2708 3 19.9167 3 19.5V4.5C3 4.08333 3.14583 3.72917 3.4375 3.4375C3.72917 3.14583 4.08333 3 4.5 3H19.5C19.9167 3 20.2708 3.14583 20.5625 3.4375C20.8542 3.72917 21 4.08333 21 4.5V19.5C21 19.9167 20.8542 20.2708 20.5625 20.5625C20.2708 20.8542 19.9167 21 19.5 21H4.5ZM4.5 19.5H19.5V6.5H4.5V19.5ZM12 16.875C10.6667 16.875 9.475 16.5167 8.425 15.8C7.375 15.0833 6.60833 14.15 6.125 13C6.60833 11.85 7.375 10.9167 8.425 10.2C9.475 9.48333 10.6667 9.125 12 9.125C13.3333 9.125 14.525 9.48333 15.575 10.2C16.625 10.9167 17.3917 11.85 17.875 13C17.3917 14.15 16.625 15.0833 15.575 15.8C14.525 16.5167 13.3333 16.875 12 16.875ZM12 15.625C12.95 15.625 13.825 15.3917 14.625 14.925C15.425 14.4583 16.05 13.8167 16.5 13C16.05 12.1833 15.425 11.5417 14.625 11.075C13.825 10.6083 12.95 10.375 12 10.375C11.05 10.375 10.175 10.6083 9.375 11.075C8.575 11.5417 7.95 12.1833 7.5 13C7.95 13.8167 8.575 14.4583 9.375 14.925C10.175 15.3917 11.05 15.625 12 15.625ZM12 14.25C11.65 14.25 11.3542 14.1292 11.1125 13.8875C10.8708 13.6458 10.75 13.35 10.75 13C10.75 12.65 10.8708 12.3542 11.1125 12.1125C11.3542 11.8708 11.65 11.75 12 11.75C12.35 11.75 12.6458 11.8708 12.8875 12.1125C13.1292 12.3542 13.25 12.65 13.25 13C13.25 13.35 13.1292 13.6458 12.8875 13.8875C12.6458 14.1292 12.35 14.25 12 14.25Z" fill="white"/>
</svg>
