<svg width="24" height="24" viewBox="0 0 24 24" fill="none" xmlns="http://www.w3.org/2000/svg">
<path d="M6.52481 15.95C6.7248 15.95 6.8998 15.875 7.0498 15.725C7.1998 15.575 7.27481 15.4 7.27481 15.2C7.27481 15 7.1998 14.825 7.0498 14.675C6.8998 14.525 6.7248 14.45 6.52481 14.45C6.32481 14.45 6.1498 14.525 5.9998 14.675C5.8498 14.825 5.7748 15 5.7748 15.2C5.7748 15.4 5.8498 15.575 5.9998 15.725C6.1498 15.875 6.32481 15.95 6.52481 15.95ZM5.7748 12.7H7.27481V7.925H5.7748V12.7ZM10.2498 14.7H18.2248V13.2H10.2498V14.7ZM10.2498 10.425H18.2248V8.925H10.2498V10.425ZM3.2998 20C2.8998 20 2.5498 19.85 2.2498 19.55C1.9498 19.25 1.7998 18.9 1.7998 18.5V5.5C1.7998 5.1 1.9498 4.75 2.2498 4.45C2.5498 4.15 2.8998 4 3.2998 4H20.6998C21.0998 4 21.4498 4.15 21.7498 4.45C22.0498 4.75 22.1998 5.1 22.1998 5.5V18.5C22.1998 18.9 22.0498 19.25 21.7498 19.55C21.4498 19.85 21.0998 20 20.6998 20H3.2998ZM3.2998 18.5H20.6998V5.5H3.2998V18.5ZM3.2998 18.5V5.5V18.5Z" fill="white"/>
</svg>
